o cube_mesh

# Positions
v -1.0 -1.0 -1.0
v  1.0 -1.0 -1.0
v  1.0  1.0 -1.0
v -1.0  1.0 -1.0
v -1.0 -1.0  1.0
v  1.0 -1.0  1.0
v  1.0  1.0  1.0
v -1.0  1.0  1.0

# Texture coordinates
vt 0.0 0.0
vt 1.0 0.0
vt 1.0 1.0
vt 0.0 1.0

# Normals
vn  0.0  0.0 -1.0
vn  0.0  0.0  1.0
vn -1.0  0.0  0.0
vn  1.0  0.0  0.0
vn  0.0 -1.0  0.0
vn  0.0  1.0  0.0

# Back (-Z)
f 1/1/1 3/3/1 2/2/1
f 3/3/1 1/1/1 4/4/1

# Front (+Z)
f 5/1/2 6/2/2 7/3/2
f 7/3/2 8/4/2 5/1/2

# Left (-X)
f 8/2/3 4/3/3 1/4/3
f 1/4/3 5/1/3 8/2/3

# Right (+X)
f 7/2/4 2/4/4 3/3/4
f 2/4/4 7/2/4 6/1/4

# Bottom (-Y)
f 1/4/5 2/3/5 6/2/5
f 6/2/5 5/1/5 1/4/5

# Top (+Y)
f 4/4/6 7/2/6 3/3/6
f 7/2/6 4/4/6 8/1/6
